{"title":"Austenland.2013.BRRiP.XVID-FiRE","uid":9464174,"size":1462124012,"categoryP":"video","categoryS":"movies","magnet":"?xt=urn:btih:fc8493b18431261e76260300bd6e6aeadc50a67c&amp;dn=Austenland.2013.BRRiP.XVID-FiRE&amp;tr=udp%3A%2F%2Ftracker.openbittorrent.com%3A80&amp;tr=udp%3A%2F%2Fopen.demonii.com%3A1337&amp;tr=udp%3A%2F%2Ftracker.coppersurfer.tk%3A6969&amp;tr=udp%3A%2F%2Fexodus.desync.com%3A6969","seeders":10,"leechers":1,"uploader":"Acesn8s","files":4,"time":1389418260,"description":"Cover \n &lt;a href=&quot;\nhttp://img.acianetmedia.com/i/Qor10.jpg&quot; rel=&quot;nofollow&quot; target=&quot;_NEW&quot;&gt;\nhttp://img.acianetmedia.com/i/Qor10.jpg&lt;/a&gt;\n\n**********************************************************************************\n\nAustenland.2013.BRRiP.XVID-FiRE\n\n**********************************************************************************\n\nFormat                                   : AVI\nFormat/Info                              : Audio Video Interleave\nFile size                                : 1.36 GiB\nDuration                                 : 1h 36mn\nOverall bit rate                         : 2 011 Kbps\nWriting application                      : VirtualDubMod 1.5.10.2 )\nWriting library                          : VirtualDubMod build 2542/release\n\n**********************************************************************************\n\nVideo\nID                                       : 0\nFormat                                   : MPEG-4 Visual\nFormat profile                           : Advanced Simple@L5\nFormat settings, BVOP                    : 2\nFormat settings, QPel                    : No\nFormat settings, GMC                     : No warppoints\nFormat settings, Matrix                  : Default (H.263)\nMuxing mode                              : Packed bitstream\nCodec ID                                 : XVID\nCodec ID/Hint                            : XviD\nDuration                                 : 1h 36mn\nBit rate                                 : 1 554 Kbps\nWidth                                    : 720 pixels\nHeight                                   : 300 pixels\nDisplay aspect ratio                     : 2.40:1\nFrame rate                               : 23.976 fps\nColor space                              : YUV\nChroma subsampling                       : 4:2:0\nBit depth                                : 8 bits\nScan type                                : Progressive\nCompression mode                         : Lossy\nBits/(Pixel*Frame)                       : 0.300\nStream size                              : 1.05 GiB (77%)\nWriting library                          : XviD 58\n\n**********************************************************************************\n\nAudio\nID                                       : 1\nFormat                                   : AC-3\nFormat/Info                              : Audio Coding 3\nMode extension                           : CM (complete main)\nFormat settings, Endianness              : Big\nCodec ID                                 : 2000\nDuration                                 : 1h 36mn\nBit rate mode                            : Constant\nBit rate                                 : 448 Kbps\nChannel(s)                               : 6 channels\nChannel positions                        : Front: L C R, Side: L R, LFE\nSampling rate                            : 48.0 KHz\nBit depth                                : 16 bits\nCompression mode                         : Lossy\nStream size                              : 311 MiB (22%)\nAlignment                                : Split accross interleaves\nInterleave, duration                     : 42 ms (1.00 video frame)\nInterleave, preload duration             : 500 ms\n\n**********************************************************************************\t\nGenre:  Comedy, Romance\n\n\nActors: Keri Russell, JJ Feild, Jennifer Coolidge\n\n\nPlot:  \n\nObsessed with Pride and Prejudice (1995), a woman travels to a Jane\nAusten theme park in search for her perfect gentleman.\n\n\nIMDB \n &lt;a href=&quot;\nhttp://www.imdb.com/title/tt1985019/&quot; rel=&quot;nofollow&quot; target=&quot;_NEW&quot;&gt;\nhttp://www.imdb.com/title/tt1985019/&lt;/a&gt;\n\n**********************************************************************************\n\nScreens: \n &lt;a href=&quot;\nhttp://img.acianetmedia.com/i/hZgcD.jpg&quot; rel=&quot;nofollow&quot; target=&quot;_NEW&quot;&gt;\nhttp://img.acianetmedia.com/i/hZgcD.jpg&lt;/a&gt;\n &lt;a href=&quot;\nhttp://img.acianetmedia.com/i/UYmra.jpg&quot; rel=&quot;nofollow&quot; target=&quot;_NEW&quot;&gt;\nhttp://img.acianetmedia.com/i/UYmra.jpg&lt;/a&gt;\n &lt;a href=&quot;\nhttp://img.acianetmedia.com/i/zsQWy.jpg&quot; rel=&quot;nofollow&quot; target=&quot;_NEW&quot;&gt;\nhttp://img.acianetmedia.com/i/zsQWy.jpg&lt;/a&gt;\n &lt;a href=&quot;\nhttp://img.acianetmedia.com/i/5AJNb.jpg&quot; rel=&quot;nofollow&quot; target=&quot;_NEW&quot;&gt;\nhttp://img.acianetmedia.com/i/5AJNb.jpg&lt;/a&gt;\n &lt;a href=&quot;\nhttp://img.acianetmedia.com/i/zND3.jpg&quot; rel=&quot;nofollow&quot; target=&quot;_NEW&quot;&gt;\nhttp://img.acianetmedia.com/i/zND3.jpg&lt;/a&gt;","torrent":{"xt":"urn:btih:fc8493b18431261e76260300bd6e6aeadc50a67c","amp;dn":"Austenland.2013.BRRiP.XVID-FiRE","amp;tr":["udp%3A%2F%2Ftracker.openbittorrent.com%3A80","udp%3A%2F%2Fopen.demonii.com%3A1337","udp%3A%2F%2Ftracker.coppersurfer.tk%3A6969","udp%3A%2F%2Fexodus.desync.com%3A6969"],"infoHash":"fc8493b18431261e76260300bd6e6aeadc50a67c","infoHashBuffer":{"type":"Buffer","data":[252,132,147,177,132,49,38,30,118,38,3,0,189,110,106,234,220,80,166,124]},"announce":[],"urlList":[]}}